<svg width="1440" height="900" fill="none" xmlns="http://www.w3.org/2000/svg"><g clip-path="url(#clip0)"><path fill="#222429" d="M0 0h1440v900H0z"/><path d="M1134.97 34.647l378.79 195.982c26.56 13.742 43.24 41.149 43.24 71.053V903.5c0 44.183-35.82 80-80 80H47c-44.183 0-80-35.817-80-80V409.28a80 80 0 0135.579-66.534l89.55-59.788c27.118-18.106 62.512-17.94 89.461.418l26.472 18.033c26.368 17.962 60.888 18.54 87.842 1.47l330.78-209.48a80 80 0 0180.395-3.03l90.647 48.256a80 80 0 0076.239-.571l185.595-102.4a80.003 80.003 0 0175.41-1.007z" fill="#26292E"/><path d="M149.577 248.985L19.814 308.96a80.005 80.005 0 00-27.835 21.333l-5.377 6.438A79.998 79.998 0 00-32 388.016V869c0 44.183 35.817 80 80 80h1391c44.18 0 80-35.817 80-80V494.263c0-63.134-69.7-101.39-122.96-67.486l-30.35 19.318a79.99 79.99 0 01-82.59 2.006l-246.12-140.37a80 80 0 00-78.272-.559L726.812 435.075a80.001 80.001 0 01-70.298 3.417L214.802 248.136a80.003 80.003 0 00-65.225.849z" fill="#1F2129"/><path d="M1140.74 469.14L1484 702.688a79.987 79.987 0 0135 66.143V903.5c0 44.183-35.82 80-80 80H49.35c-40.869 0-75.166-30.804-79.54-71.437l-5.064-47.031C-39.837 822.456.92 789.26 41.687 802.364a59.172 59.172 0 0048.205-5.388l254.429-150.307a80 80 0 0175.131-3.33l199.872 95.33a80 80 0 0082.404-8.181l346.042-259.232c27.36-20.493 64.71-21.343 92.97-2.116z" fill="#1A1C25"/><path d="M0 631s282-64 532-252.5S924 0 924 0M0 653s353-59.5 659.5-275 400-378 400-378M0 675s433.5-15.5 834-306.5S1241 0 1241 0M0 698s376 13 824-197 615.5-487 615.5-487M0 719.001s235 24.411 699-76.501 740.5-356 740.5-356M0 736.501S272 774 704.5 715.5s735-231.5 735-231.5M0 751s275 44 686 27.5S1439.5 642 1439.5 642M0 762.501S394 836 770.5 829.5s669-67 669-67M0 774s354 79 766 97c465 20.316 673.5-9.498 673.5-9.498M0 782.5s197.674 44.057 328.5 67C459.326 872.443 670 900 670 900M-.5 789.5s152.686 38.826 251 60.5S503 900.5 503 900.5M-1 796s152.762 40.225 250.5 65c65.742 16.665 168.5 39.5 168.5 39.5m-418.5-99l248 69 113.5 30M-1 804s80.284 26.465 131.5 41.5C204.386 867.19 320 900 320 900M-2 807s79.347 25.531 130 42.5c65.177 21.835 168 52.5 168 52.5M-2 811l130 42.5L270 902M-2 815l130 42.5 124 45M-2 819s78.782 24.305 129 42.5c46.398 16.811 118.5 46.5 118.5 46.5M-2 823s78.782 24.305 129 42.5c46.398 16.811 108.5 48 108.5 48M-2 827s61.387 18.249 92.5 29c61.797 21.354 137 62 137 62" stroke="#FFDD3C" stroke-width="4" stroke-linecap="round"/><path d="M82.5 853.5l-85.5-25-4 76.5 203-2.5-38.5-18-75-31z" fill="#FFDD3C"/><circle cx="566" cy="427" r="8" fill="#fff"/><circle cx="826" cy="362" r="8" fill="#fff"/><circle cx="646" cy="565" r="8" fill="#fff"/><circle cx="509" cy="670" r="8" fill="#fff"/><circle cx="1113" cy="487" r="8" fill="#fff"/><circle cx="929" cy="663" r="8" fill="#fff"/><circle cx="461" cy="772" r="8" fill="#fff"/><circle cx="689" cy="768" r="8" fill="#fff"/><path fill="#1D1E23" fill-opacity=".8" d="M0 0h1439v900H0z"/></g><defs><clipPath id="clip0"><path fill="#fff" d="M0 0h1440v900H0z"/></clipPath></defs></svg>