<svg width="61" height="26" viewBox="0 0 61 26" fill="none" xmlns="http://www.w3.org/2000/svg">
<rect x="0.5" y="0.5" width="60" height="25" rx="3.5" fill="white"/>
<path d="M6.66699 10L12.0003 15.3333L17.3337 10H6.66699Z" fill="#FF5E59"/>
<path d="M29.6538 18.2158C31.6025 18.2158 33.0498 17.1304 33.3544 15.4546V15.4419H32.1992L32.1865 15.4546C31.9008 16.5083 30.9296 17.1621 29.6538 17.1621C27.8891 17.1621 26.7846 15.7212 26.7846 13.4297V13.417C26.7846 11.1255 27.8891 9.67822 29.6474 9.67822C30.9106 9.67822 31.8881 10.4209 32.1928 11.5952L32.1992 11.6079H33.3481L33.3544 11.5952C33.0815 9.83691 31.5771 8.62451 29.6474 8.62451C27.1591 8.62451 25.6103 10.4653 25.6103 13.417V13.4297C25.6103 16.375 27.1655 18.2158 29.6538 18.2158ZM35.1849 18H36.2894V13.9502C36.2894 12.7505 36.9812 12.0142 38.073 12.0142C39.1648 12.0142 39.6727 12.6045 39.6727 13.8359V18H40.7771V13.5693C40.7771 11.9443 39.9202 11.0366 38.3841 11.0366C37.3748 11.0366 36.7337 11.4619 36.3909 12.1855H36.2894V8.44043H35.1849V18ZM45.5783 18.1206C47.527 18.1206 48.7331 16.7749 48.7331 14.585V14.5723C48.7331 12.376 47.527 11.0366 45.5783 11.0366C43.6295 11.0366 42.4235 12.376 42.4235 14.5723V14.585C42.4235 16.7749 43.6295 18.1206 45.5783 18.1206ZM45.5783 17.1431C44.2833 17.1431 43.5534 16.1973 43.5534 14.585V14.5723C43.5534 12.9536 44.2833 12.0142 45.5783 12.0142C46.8732 12.0142 47.6032 12.9536 47.6032 14.5723V14.585C47.6032 16.1973 46.8732 17.1431 45.5783 17.1431ZM45.5783 20.8438C45.9972 20.8438 46.34 20.501 46.34 20.082C46.34 19.6631 45.9972 19.3203 45.5783 19.3203C45.1593 19.3203 44.8166 19.6631 44.8166 20.082C44.8166 20.501 45.1593 20.8438 45.5783 20.8438ZM50.4365 18H51.541V13.9502C51.541 12.7505 52.2329 12.0142 53.3247 12.0142C54.4165 12.0142 54.9243 12.6045 54.9243 13.8359V18H56.0288V13.5693C56.0288 11.9443 55.1719 11.0366 53.6357 11.0366C52.6265 11.0366 51.9854 11.4619 51.6426 12.1855H51.541V11.1572H50.4365V18Z" fill="#FF5E59"/>
<rect x="0.5" y="0.5" width="60" height="25" rx="3.5" stroke="#FF5E59"/>
</svg>
