<svg width="40" height="40" viewBox="0 0 40 40" fill="none" xmlns="http://www.w3.org/2000/svg">
<path d="M16.862 29.9776H4.80511" stroke="white" stroke-width="2.5" stroke-linecap="round" stroke-linejoin="round"/>
<path fill-rule="evenodd" clip-rule="evenodd" d="M35.1964 29.9776C35.1964 32.6286 33.0474 34.7776 30.3964 34.7776C27.7455 34.7776 25.5964 32.6286 25.5964 29.9776C25.5964 27.3247 27.7455 25.1776 30.3964 25.1776C33.0474 25.1776 35.1964 27.3247 35.1964 29.9776Z" stroke="white" stroke-width="2.5" stroke-linecap="round" stroke-linejoin="round"/>
<path d="M23.1378 10.4368H35.1966" stroke="white" stroke-width="2.5" stroke-linecap="round" stroke-linejoin="round"/>
<path fill-rule="evenodd" clip-rule="evenodd" d="M4.80426 10.4368C4.80426 13.0898 6.95328 15.2368 9.60426 15.2368C12.2552 15.2368 14.4043 13.0898 14.4043 10.4368C14.4043 7.78586 12.2552 5.63684 9.60426 5.63684C6.95328 5.63684 4.80426 7.78586 4.80426 10.4368Z" stroke="white" stroke-width="2.5" stroke-linecap="round" stroke-linejoin="round"/>
</svg>
