<svg width="343" height="48" viewBox="0 0 343 48" fill="none" xmlns="http://www.w3.org/2000/svg">
<path d="M0 8C0 3.58172 3.58172 0 8 0H335C339.418 0 343 3.58172 343 8V40C343 44.4183 339.418 48 335 48H7.99999C3.58172 48 0 44.4183 0 40V8Z" fill="#FF5722"/>
<path d="M126.662 31H129.906V26.252L131.378 24.4473L135.954 31H139.832L133.731 22.3311L139.435 15.499H135.825L129.982 22.5889H129.906V15.499H126.662V31ZM148.627 14.2959H150.56L153.01 11.3418H150.324L148.627 14.2959ZM142.966 18.1953H145.254L146.597 16.1973L147.982 18.1953H150.27L147.875 14.7041H145.34L142.966 18.1953ZM146.672 31.2363C149.959 31.2363 151.549 29.292 151.903 27.5947L151.935 27.4766H149.057L149.035 27.541C148.809 28.1855 148.025 28.8945 146.736 28.8945C145.136 28.8945 144.137 27.8203 144.104 25.9834H152.032V25.0166C152.032 21.5361 149.916 19.248 146.543 19.248C143.17 19.248 141.011 21.5898 141.011 25.2529V25.2637C141.011 28.9482 143.148 31.2363 146.672 31.2363ZM146.597 21.5898C147.896 21.5898 148.831 22.417 149.024 24.0068H144.137C144.341 22.4492 145.308 21.5898 146.597 21.5898ZM159.473 31.2363C160.129 31.2363 160.634 31.1719 160.988 31.1182V28.8193C160.795 28.8408 160.591 28.873 160.311 28.873C159.366 28.873 158.883 28.5078 158.883 27.4336V21.8477H160.988V19.4844H158.883V16.6699H155.714V19.4844H154.113V21.8477H155.714V27.7773C155.714 30.248 156.917 31.2363 159.473 31.2363ZM174.141 31.2363C174.796 31.2363 175.301 31.1719 175.656 31.1182V28.8193C175.462 28.8408 175.258 28.873 174.979 28.873C174.034 28.873 173.55 28.5078 173.55 27.4336V21.8477H175.656V19.4844H173.55V16.6699H170.381V19.4844H168.781V21.8477H170.381V27.7773C170.381 30.248 171.584 31.2363 174.141 31.2363ZM178.703 31H181.84V24.4043C181.84 22.9004 182.732 21.8477 184.117 21.8477C185.546 21.8477 186.341 22.8037 186.341 24.415V31H189.478V23.7705C189.478 20.9883 187.931 19.248 185.439 19.248C183.709 19.248 182.495 20.043 181.905 21.4717H181.84V15.499H178.703V31ZM198.831 18.1953L201.441 14.5215H198.638L196.704 18.1953H198.831ZM196.661 31.2363C198.401 31.2363 199.583 30.4199 200.174 29.0986H200.238V31H203.375V19.4844H200.238V26.1016C200.238 27.6055 199.347 28.6367 197.94 28.6367C196.532 28.6367 195.823 27.7666 195.823 26.2627V19.4844H192.687V26.918C192.687 29.6143 194.126 31.2363 196.661 31.2363ZM211.923 31.2363C214.995 31.2363 216.982 29.3242 217.133 26.8105V26.7461H214.211L214.2 26.8428C213.985 28.0029 213.201 28.7764 211.944 28.7764C210.397 28.7764 209.431 27.498 209.431 25.2422V25.2314C209.431 23.0293 210.397 21.708 211.934 21.708C213.233 21.708 213.996 22.5459 214.189 23.6416L214.211 23.7383H217.122V23.6631C217.004 21.1709 215.017 19.248 211.891 19.248C208.442 19.248 206.24 21.5361 206.24 25.2207V25.2314C206.24 28.9482 208.41 31.2363 211.923 31.2363Z" fill="white"/>
</svg>
