<svg width="32" height="33" viewBox="0 0 32 33" fill="none" xmlns="http://www.w3.org/2000/svg">
<g filter="url(#filter0_d)">
<rect x="2" y="0.321289" width="24" height="24" rx="4" fill="white"/>
<path d="M24.8001 11.529L24.7677 11.4995C24.7352 11.4699 15.1601 2.76099 15.0951 2.70195C15.0627 2.67243 15.0627 2.6429 15.0302 2.6429C14.5433 2.17055 12.9854 1.52108 11.7519 1.52108C10.0641 1.52108 9.44741 1.87534 8.27892 2.76099C8.05171 2.93813 7.85695 3.41047 7.69466 3.91234C7.56483 4.20756 7.56483 4.56182 7.59729 5.03417C7.66221 5.65413 7.72713 6.09696 7.79204 6.4217C7.69467 6.36266 7.59729 6.33313 7.53237 6.36266C7.30516 6.45122 7.27271 6.92357 7.46746 7.42544C7.56484 7.72066 7.79205 7.95683 7.98679 8.10444C8.05171 8.19301 8.14908 8.28157 8.24646 8.34062C8.31137 8.42918 8.40874 8.51775 8.50612 8.57679C8.50612 8.57679 8.50612 8.60632 8.53858 8.60632C8.79824 9.10819 9.09037 9.58054 9.44741 9.9348V10.6433L9.28512 10.5548C9.25266 10.909 9.09037 11.1157 8.92808 11.2633L7.95433 12.0013L7.79204 12.0899L7.11042 12.2375C7.11042 12.2375 4.74097 12.5622 4.28656 13.1527C3.50756 13.5955 3.44264 19.2637 3.60493 19.2932C3.60493 19.2932 6.20159 21.5959 7.46746 22.6882C8.83071 23.1311 10.2913 23.3672 11.8169 23.3672C18.9577 23.3672 24.8001 18.0828 24.8001 11.529Z" fill="#023373"/>
<path d="M12.3686 18.5259L16.4258 12.6216L14.3161 11.175L9.05782 11.5293L7.04541 13.2415L11.5571 18.9392C11.8168 18.7916 12.1089 18.644 12.3686 18.5259Z" fill="#80D1D9"/>
<path d="M14.1205 8.87226H9.41406V11.8835H14.1205V8.87226Z" fill="#D1AB86"/>
<path d="M7.95319 6.71691C8.24532 9.31483 10.3876 11.2338 11.7508 11.2338C13.2114 11.2338 15.2238 9.25579 15.5484 6.71691C15.873 4.23708 13.8281 2.96764 11.7508 2.96764C9.67347 2.99716 7.69353 4.23708 7.95319 6.71691Z" fill="#FFE2C2"/>
<path d="M15.7412 4.17799C15.6114 3.70564 15.4491 3.08568 15.0271 2.64285C14.5403 2.1705 12.9823 1.52102 11.7489 1.52102C10.061 1.52102 9.44432 1.87528 8.27583 2.76094C8.04862 2.93807 7.85387 3.41042 7.69158 3.91229C7.56174 4.20751 7.56175 4.56177 7.59421 5.03412C7.78895 6.65782 7.95125 7.13017 7.95125 7.13017L8.40566 7.3073C8.40566 7.3073 8.17846 6.74638 8.47058 5.97882C8.5355 5.77216 8.66533 5.56551 8.7627 5.38838C9.28203 5.65408 9.83382 6.00834 10.483 6.00834C11.7164 5.97882 12.2033 5.09316 12.7875 5.18173C13.9236 5.35886 14.5727 6.56925 15.2219 6.56925C15.2543 7.01208 15.157 7.3073 15.157 7.3073L15.4166 7.13017C15.4166 7.13017 15.4815 6.98256 15.5465 6.59878C15.6438 6.59878 15.7088 6.59878 15.7088 6.59878C15.7088 6.59878 16.0983 5.35886 15.7412 4.17799Z" fill="#0C0A0A"/>
<path d="M15.2542 7.13003C15.0595 7.66143 14.8972 8.13377 15.1244 8.22234C15.3516 8.31091 15.9034 7.92712 16.0982 7.39573C16.2929 6.86434 16.2605 6.39198 16.0332 6.33294C15.806 6.24437 15.449 6.62816 15.2542 7.13003Z" fill="#FFE2C2"/>
<path d="M8.30968 7.1302C8.50443 7.66159 8.66672 8.13394 8.43952 8.2225C8.21231 8.31107 7.66052 7.92728 7.46577 7.39589C7.27102 6.8645 7.30347 6.39215 7.53068 6.3331C7.75789 6.24454 8.11494 6.62833 8.30968 7.1302Z" fill="#FFE2C2"/>
<path d="M9.25333 10.5563L11.7851 11.8848L10.9412 13.4789L8.96121 11.8257C8.96121 11.8257 8.44188 11.7076 8.60417 11.501C8.79892 11.2943 9.22087 11.0877 9.25333 10.5563Z" fill="#FFF8F8"/>
<path d="M14.3149 10.5548L11.7832 11.8833L12.6271 13.4775L14.6071 11.8242C14.6071 11.8242 15.1264 11.7061 14.9641 11.4995C14.7694 11.2928 14.3474 11.0862 14.3149 10.5548Z" fill="#FFF8F8"/>
<path d="M7.92162 11.9718L7.75933 12.0604L7.0777 12.208C7.0777 12.208 4.70825 12.5327 4.25384 13.1231C3.47484 13.566 3.40993 19.2342 3.57222 19.2637C3.73451 19.2932 10.9402 19.2637 10.9402 19.2637C11.1999 19.0866 11.492 18.939 11.7517 18.7913L8.8629 11.2338L7.92162 11.9718Z" fill="#184F78"/>
<path d="M19.2819 13.1527C18.8599 12.5623 16.458 12.2375 16.458 12.2375L15.9712 12.1194L15.6141 11.9423L14.6404 11.2633L11.7516 18.8209V18.8504C11.1998 19.0571 10.1936 19.1456 10.4857 19.3227C10.4857 19.3227 19.8012 19.3523 19.9635 19.3227C20.1258 19.2637 20.0934 13.625 19.2819 13.1527Z" fill="#184F78"/>
</g>
<defs>
<filter id="filter0_d" x="0" y="0.321289" width="32" height="32" filterUnits="userSpaceOnUse" color-interpolation-filters="sRGB">
<feFlood flood-opacity="0" result="BackgroundImageFix"/>
<feColorMatrix in="SourceAlpha" type="matrix" values="0 0 0 0 0 0 0 0 0 0 0 0 0 0 0 0 0 0 127 0"/>
<feOffset dx="2" dy="4"/>
<feGaussianBlur stdDeviation="2"/>
<feColorMatrix type="matrix" values="0 0 0 0 0 0 0 0 0 0 0 0 0 0 0 0 0 0 0.25 0"/>
<feBlend mode="normal" in2="BackgroundImageFix" result="effect1_dropShadow"/>
<feBlend mode="normal" in="SourceGraphic" in2="effect1_dropShadow" result="shape"/>
</filter>
</defs>
</svg>
