<svg width="40" height="40" viewBox="0 0 40 40" fill="none" xmlns="http://www.w3.org/2000/svg">
<path d="M16.862 29.9777H4.8051" stroke="white" stroke-width="2.5" stroke-linecap="round" stroke-linejoin="round"/>
<path fill-rule="evenodd" clip-rule="evenodd" d="M35.1965 29.9775C35.1965 32.6285 33.0474 34.7775 30.3965 34.7775C27.7455 34.7775 25.5965 32.6285 25.5965 29.9775C25.5965 27.3245 27.7455 25.1775 30.3965 25.1775C33.0474 25.1775 35.1965 27.3245 35.1965 29.9775Z" stroke="white" stroke-width="2.5" stroke-linecap="round" stroke-linejoin="round"/>
<path d="M23.1378 10.4367H35.1967" stroke="white" stroke-width="2.5" stroke-linecap="round" stroke-linejoin="round"/>
<path fill-rule="evenodd" clip-rule="evenodd" d="M4.80431 10.4367C4.80431 13.0897 6.95333 15.2367 9.60431 15.2367C12.2553 15.2367 14.4043 13.0897 14.4043 10.4367C14.4043 7.78574 12.2553 5.63672 9.60431 5.63672C6.95333 5.63672 4.80431 7.78574 4.80431 10.4367Z" stroke="white" stroke-width="2.5" stroke-linecap="round" stroke-linejoin="round"/>
</svg>
