<svg width="20" height="20" viewBox="0 0 20 20" fill="none" xmlns="http://www.w3.org/2000/svg">
<path d="M0.883286 12.7496H19.1169C19.3293 12.7496 19.5231 12.6288 19.6163 12.4376C19.7091 12.2469 19.685 12.0194 19.5542 11.8525L10.4367 0.213227C10.3313 0.0786619 10.1705 0 9.99944 0C9.82908 0 9.66756 0.0784409 9.56261 0.213227L0.446448 11.8525C0.315198 12.0196 0.291113 12.2469 0.384358 12.4376C0.477161 12.6288 0.670944 12.7496 0.883286 12.7496ZM9.99967 1.45569L17.9772 11.6393H2.02344L9.99967 1.45569Z" fill="#709FB0"/>
<path d="M0.328125 19.4445C0.328125 19.7515 0.576705 20 0.883177 20H19.0282C19.3351 20 19.5837 19.7515 19.5837 19.4445V15.2916C19.5837 14.9851 19.3351 14.7365 19.0282 14.7365H0.883177C0.576705 14.7365 0.328125 14.9851 0.328125 15.2916V19.4445ZM1.43845 15.8471H18.4732V18.8897H1.43845V15.8471Z" fill="#709FB0"/>
</svg>
