<svg width="24" height="24" viewBox="0 0 24 24" fill="none" xmlns="http://www.w3.org/2000/svg">
<path d="M0 4C0 1.79086 1.79086 0 4 0H20C22.2091 0 24 1.79086 24 4V20C24 22.2091 22.2091 24 20 24H4C1.79086 24 0 22.2091 0 20V4Z" fill="white"/>
<path d="M13.7456 16.2456L12.625 17.3662V13.875H11.375V17.3662L10.2544 16.2456L9.37061 17.1294L12 19.7588L14.6294 17.1294L13.7456 16.2456Z" fill="#9562B7"/>
<path d="M20.75 22H3.25V14.5H2V13.25H4.5V20.75H19.5V13.25H22V14.5H20.75V22Z" fill="#A477BD"/>
<path d="M18.25 8.25C18.25 11.7018 15.4518 14.5 12 14.5C8.54816 14.5 5.75 11.7018 5.75 8.25C5.75 4.79816 8.54816 2 12 2C15.4518 2 18.25 4.79816 18.25 8.25Z" fill="#FFCB5A"/>
<path d="M12 6.375H13.875V5.125H12.625V3.875H11.375V5.24005C10.6494 5.49869 10.125 6.18625 10.125 7C10.125 8.03378 10.9662 8.875 12 8.875C12.3444 8.875 12.625 9.155 12.625 9.5C12.625 9.845 12.3444 10.125 12 10.125H10.125V11.375H11.375V12.625H12.625V11.2599C13.3506 11.0013 13.875 10.3138 13.875 9.5C13.875 8.46622 13.0338 7.625 12 7.625C11.6556 7.625 11.375 7.345 11.375 7C11.375 6.655 11.6556 6.375 12 6.375Z" fill="white"/>
<path d="M8.25 19.5H5.75V17H7V18.25H8.25V19.5Z" fill="#FFCB5A"/>
<path d="M18.25 19.5H15.75V18.25H17V17H18.25V19.5Z" fill="#FFCB5A"/>
</svg>
