<svg width="24" height="24" viewBox="0 0 24 24" fill="none" xmlns="http://www.w3.org/2000/svg">
<path d="M0 4C0 1.79086 1.79086 0 4 0H20C22.2091 0 24 1.79086 24 4V20C24 22.2091 22.2091 24 20 24H4C1.79086 24 0 22.2091 0 20V4Z" fill="white"/>
<path d="M16.375 21.707H7.625C6.97777 21.707 6.45312 21.1824 6.45312 20.5352V3.46484C6.45312 2.81762 6.97777 2.29297 7.625 2.29297H16.375C17.0222 2.29297 17.5469 2.81762 17.5469 3.46484V20.5352C17.5469 21.1824 17.0222 21.707 16.375 21.707Z" fill="#BDF9FF"/>
<path d="M16.375 2.29297H15.2031C15.8504 2.29297 16.375 2.81762 16.375 3.46484V20.5352C16.375 21.1824 15.8504 21.707 15.2031 21.707H16.375C17.0222 21.707 17.5469 21.1824 17.5469 20.5352V3.46484C17.5469 2.81762 17.0222 2.29297 16.375 2.29297Z" fill="#8CF2FF"/>
<path d="M17.5469 19.1875V20.5352C17.5469 21.1824 17.0222 21.707 16.375 21.707H7.625C6.97777 21.707 6.45312 21.1824 6.45312 20.5352V19.1875H17.5469Z" fill="#4380A0"/>
<path d="M16.375 19.1875V20.5352C16.375 21.1824 15.8504 21.707 15.2031 21.707H16.375C17.0222 21.707 17.5469 21.1824 17.5469 20.5352V19.1875H16.375Z" fill="#3B7191"/>
<path d="M14.4219 3.875H9.57812C9.23293 3.875 8.95312 3.5952 8.95312 3.25V2.3125H15.0469V3.25C15.0469 3.5952 14.7671 3.875 14.4219 3.875Z" fill="#4380A0"/>
<path d="M13.9322 11.3232H10.0678C9.62477 11.3232 9.26562 10.9641 9.26562 10.5211V6.65664C9.26562 6.21363 9.62477 5.85449 10.0678 5.85449H13.9322C14.3752 5.85449 14.7344 6.21363 14.7344 6.65664V10.5211C14.7344 10.9641 14.3752 11.3232 13.9322 11.3232Z" fill="#63E7FF"/>
<path d="M13.9322 5.56152H10.0678C9.46391 5.56152 8.97266 6.05277 8.97266 6.65664V10.5211C8.97266 11.125 9.46391 11.6162 10.0678 11.6162H13.9322C14.5361 11.6162 15.0273 11.125 15.0273 10.5211V6.65664C15.0273 6.05277 14.5361 5.56152 13.9322 5.56152ZM14.4414 10.5211C14.4414 10.8019 14.213 11.0303 13.9322 11.0303H10.0678C9.78699 11.0303 9.55859 10.8018 9.55859 10.5211V6.65664C9.55859 6.37586 9.78703 6.14746 10.0678 6.14746H13.9322C14.213 6.14746 14.4414 6.3759 14.4414 6.65664V10.5211Z" fill="#F75632"/>
<path d="M11.4141 6.73242H10.4375C10.2757 6.73242 10.1445 6.86355 10.1445 7.02539V8.00184C10.1445 8.16367 10.2757 8.2948 10.4375 8.2948C10.5993 8.2948 10.7305 8.16367 10.7305 8.00184V7.31836H11.4141C11.5759 7.31836 11.707 7.18723 11.707 7.02539C11.707 6.86355 11.5759 6.73242 11.4141 6.73242Z" fill="#F75632"/>
<path d="M11.4141 9.85656H10.7305V9.17285C10.7305 9.01102 10.5993 8.87988 10.4375 8.87988C10.2757 8.87988 10.1445 9.01102 10.1445 9.17285V10.1495C10.1445 10.3114 10.2757 10.4425 10.4375 10.4425H11.4141C11.5759 10.4425 11.707 10.3114 11.707 10.1495C11.707 9.9877 11.5759 9.85656 11.4141 9.85656Z" fill="#F75632"/>
<path d="M13.5625 8.87988C13.4007 8.87988 13.2695 9.01102 13.2695 9.17285V9.85656H12.5859C12.4241 9.85656 12.293 9.9877 12.293 10.1495C12.293 10.3114 12.4241 10.4425 12.5859 10.4425H13.5625C13.7243 10.4425 13.8555 10.3114 13.8555 10.1495V9.17285C13.8555 9.01102 13.7243 8.87988 13.5625 8.87988Z" fill="#F75632"/>
<path d="M13.5625 6.73242H12.5859C12.4241 6.73242 12.293 6.86355 12.293 7.02539C12.293 7.18723 12.4241 7.31836 12.5859 7.31836H13.2695V8.00184C13.2695 8.16367 13.4007 8.2948 13.5625 8.2948C13.7243 8.2948 13.8555 8.16367 13.8555 8.00184V7.02539C13.8555 6.86355 13.7243 6.73242 13.5625 6.73242Z" fill="#F75632"/>
<path d="M15.6289 17.2344H8.37113C8.21793 17.2344 8.09375 17.1102 8.09375 16.957V13.4493C8.09375 13.2961 8.21793 13.1719 8.37113 13.1719H15.6289C15.7821 13.1719 15.9063 13.2961 15.9063 13.4493V16.957C15.9062 17.1102 15.7821 17.2344 15.6289 17.2344Z" fill="#7BE492"/>
<path d="M15.6289 13.1719H14.457C14.6102 13.1719 14.7344 13.2961 14.7344 13.4493V16.957C14.7344 17.1102 14.6102 17.2344 14.457 17.2344H15.6289C15.7821 17.2344 15.9063 17.1102 15.9063 16.957V13.4493C15.9063 13.2961 15.7821 13.1719 15.6289 13.1719Z" fill="#45D987"/>
<path d="M16.375 2H7.625C6.81727 2 6.16016 2.65711 6.16016 3.46484V20.5352C6.16016 21.3429 6.81727 22 7.625 22H16.375C17.1827 22 17.8398 21.3429 17.8398 20.5352V3.46484C17.8398 2.65711 17.1827 2 16.375 2ZM17.2539 20.5352C17.2539 21.0198 16.8596 21.4141 16.375 21.4141H7.625C7.14039 21.4141 6.74609 21.0198 6.74609 20.5352V3.46484C6.74609 2.98023 7.14039 2.58594 7.625 2.58594H16.375C16.8596 2.58594 17.2539 2.98023 17.2539 3.46484V20.5352Z" fill="#2B6181"/>
<path d="M12.3051 14.223C12.3041 14.2203 12.303 14.2175 12.3019 14.2148C12.2499 14.0884 12.1279 14.0068 11.9913 14.0068H11.9908C11.8539 14.007 11.732 14.089 11.6803 14.2158C11.6794 14.2179 11.6786 14.2201 11.6777 14.2223L10.9656 16.0922C10.9079 16.2434 10.9839 16.4127 11.1351 16.4703C11.1694 16.4834 11.2046 16.4895 11.2393 16.4895C11.3573 16.4895 11.4686 16.4177 11.5131 16.3007L11.6186 16.0237H12.3585L12.4627 16.2999C12.5199 16.4513 12.6889 16.5278 12.8402 16.4705C12.9916 16.4134 13.068 16.2444 13.0109 16.093L12.3051 14.223ZM11.8418 15.4378L11.9902 15.048L12.1373 15.4378H11.8418Z" fill="#F3F3F3"/>
<path d="M14.4178 14.0591C14.2822 13.9708 14.1007 14.0092 14.0125 14.1448L13.6568 14.6912L13.2966 14.1396C13.2081 14.0041 13.0266 13.9661 12.8911 14.0545C12.7557 14.143 12.7175 14.3245 12.806 14.46L13.364 15.3144L13.3618 16.1958C13.3614 16.3576 13.4923 16.4891 13.6541 16.4895H13.6548C13.8163 16.4895 13.9474 16.3588 13.9478 16.1972L13.9499 15.3149L14.5035 14.4645C14.5918 14.3289 14.5534 14.1474 14.4178 14.0591Z" fill="#F3F3F3"/>
<path d="M9.44764 14.2984V16.1951C9.44764 16.357 9.57878 16.4881 9.74061 16.4881C9.90245 16.4881 10.0336 16.357 10.0336 16.1951V15.6627C10.123 15.6623 10.2128 15.6619 10.2687 15.6619C10.7312 15.6619 11.1074 15.2904 11.1074 14.8337C11.1074 14.3771 10.7312 14.0055 10.2687 14.0055C10.0927 14.0055 9.91667 14.0055 9.74061 14.0055C9.72667 14.0044 9.60018 13.9964 9.51272 14.0966C9.43948 14.1805 9.44608 14.2801 9.44764 14.2984ZM10.2687 15.0759C10.2132 15.0759 10.1246 15.0763 10.0357 15.0767C10.0353 14.9841 10.0349 14.8911 10.0349 14.8337C10.0349 14.7845 10.0347 14.6887 10.0344 14.5914H10.2687C10.4057 14.5914 10.5215 14.7023 10.5215 14.8337C10.5215 14.965 10.4057 15.0759 10.2687 15.0759Z" fill="#F3F3F3"/>
<path d="M12.7812 20.125H11.2188C11.057 20.125 10.9258 20.2561 10.9258 20.418C10.9258 20.5798 11.057 20.7109 11.2188 20.7109H12.7812C12.943 20.7109 13.0742 20.5798 13.0742 20.418C13.0742 20.2561 12.943 20.125 12.7812 20.125Z" fill="#FFD54F"/>
</svg>
