<svg width="32" height="33" viewBox="0 0 32 33" fill="none" xmlns="http://www.w3.org/2000/svg">
<g filter="url(#filter0_d)">
<rect x="2" y="0.321289" width="24" height="24" rx="4" fill="white"/>
<path d="M14 24.3213C7.38433 24.3213 2 18.9369 2 12.3213C2 5.70564 7.38433 0.321289 14 0.321289C20.6156 0.321289 25.9999 5.70564 25.9999 12.3213C26.0208 18.9369 20.6156 24.3213 14 24.3213ZM14 0.80129C7.65564 0.80129 2.50087 5.95607 2.50087 12.3004C2.50087 18.6448 7.65564 23.7995 14 23.7995C20.3443 23.7995 25.4991 18.6448 25.4991 12.3004C25.4991 5.97694 20.3443 0.80129 14 0.80129Z" fill="white"/>
<path d="M11.7412 12.1858C11.7412 13.4171 12.6177 14.4397 13.7238 14.4397C14.809 14.4397 15.7064 13.438 15.7064 12.1858H11.7412Z" fill="#184F78"/>
<path d="M13.8911 14.4607V21.932H15.665L15.6859 12.165C13.8911 12.165 13.8911 14.4607 13.8911 14.4607Z" fill="#184F78"/>
<path d="M11.7412 12.165L11.7621 21.932H13.536V14.4607C13.5151 14.4607 13.5151 12.165 11.7412 12.165Z" fill="#184F78"/>
<path d="M18.962 15.9215H14.3081V16.798H18.962V15.9215Z" fill="#443003"/>
<path d="M16.9175 16.5686H16.354V17.5286H16.9175V16.5686Z" fill="#FFCC2A"/>
<path d="M17.5438 14.899H17.4395V15.6085H17.5438V14.899Z" fill="#3F2E00"/>
<path d="M15.8319 14.9197H15.7275V15.6293H15.8319V14.9197Z" fill="#3F2E00"/>
<path d="M18.962 16.0678V15.7547C18.962 15.5669 18.8159 15.4208 18.6281 15.4208H14.642C14.4542 15.4208 14.3081 15.5669 14.3081 15.7547V16.0678L16.6455 16.7356L18.962 16.0678Z" fill="#5E4506"/>
<path d="M14.5587 16.026L14.4126 15.9843V15.8382H14.4752V15.9425L14.5587 15.9634V16.026Z" fill="#BA8B20"/>
<path d="M16.7707 16.5895L16.7498 16.5269L17.0003 16.4643L17.0211 16.5269L16.7707 16.5895ZM16.4994 16.5895L16.249 16.5269L16.2698 16.4643L16.5203 16.5269L16.4994 16.5895ZM17.2507 16.4434L17.2298 16.3808L17.4803 16.3182L17.5011 16.3808L17.2507 16.4434ZM16.0194 16.4434L15.769 16.3808L15.7898 16.3182L16.0403 16.3808L16.0194 16.4434ZM17.7516 16.2973L17.7307 16.2347L17.9811 16.1721L18.002 16.2347L17.7516 16.2973ZM15.5185 16.2973L15.2681 16.2347L15.289 16.1721L15.5394 16.2347L15.5185 16.2973ZM18.2316 16.1721L18.2107 16.1095L18.4611 16.0469L18.482 16.1095L18.2316 16.1721ZM15.0385 16.1721L14.7881 16.1095L14.809 16.0469L15.0594 16.1095L15.0385 16.1721Z" fill="#BA8B20"/>
<path d="M18.7119 16.026V15.9634L18.7954 15.9425V15.8382H18.858V15.9843L18.7119 16.026Z" fill="#BA8B20"/>
<path d="M16.9172 16.7982V17.1321C16.9172 17.1947 16.8754 17.2365 16.8128 17.2365H16.4372C16.3746 17.2365 16.3328 17.1947 16.3328 17.1321V16.7982L14.2876 16.2139V18.6139C14.2876 18.8017 14.4337 18.9478 14.6215 18.9478H18.6285C18.8163 18.9478 18.9624 18.8017 18.9624 18.6139V16.2139L16.9172 16.7982Z" fill="#5E4506"/>
<path d="M18.4195 18.8435H18.19V18.7809H18.4195V18.8435ZM17.9395 18.8435H17.71V18.7809H17.9395V18.8435ZM17.4595 18.8435H17.23V18.7809H17.4595V18.8435ZM17.0004 18.8435H16.75V18.7809H16.9795V18.8435H17.0004ZM16.5204 18.8435H16.2909V18.7809H16.5204V18.8435ZM16.0404 18.8435H15.8109V18.7809H16.0404V18.8435ZM15.5604 18.8435H15.3309V18.7809H15.5604V18.8435ZM15.0804 18.8435H14.8509V18.7809H15.0804V18.8435ZM18.67 18.8226L18.6491 18.76C18.7117 18.7183 18.7743 18.6765 18.7952 18.6139L18.8578 18.6348C18.7952 18.7183 18.7535 18.7809 18.67 18.8226ZM14.6004 18.8226C14.5169 18.7809 14.4543 18.7183 14.4335 18.6348L14.4961 18.6139C14.5169 18.6765 14.5796 18.7391 14.6422 18.76L14.6004 18.8226ZM18.8578 18.3844H18.7952V18.1548H18.8578V18.3844ZM14.4752 18.3844H14.4126V18.1548H14.4752V18.3844ZM18.8578 17.9044H18.7952V17.6748H18.8578V17.9044ZM14.4752 17.9044H14.4126V17.6748H14.4752V17.9044ZM18.8578 17.4244H18.7952V17.1948H18.8578V17.4244ZM14.4752 17.4244H14.4126V17.1948H14.4752V17.4244ZM18.8578 16.9652H18.7952V16.7357H18.8578V16.9652ZM14.4752 16.9652H14.4126V16.7357H14.4752V16.9652ZM18.8578 16.4644H18.7952V16.2557L18.8578 16.2348V16.4644ZM14.4752 16.4644H14.4126V16.2348L14.4752 16.2557V16.4644Z" fill="#BA8B20"/>
<path d="M17.6059 14.9198C17.6059 14.9824 17.5642 15.0242 17.5016 15.0242H15.7694C15.7068 15.0242 15.665 14.9824 15.665 14.9198C15.665 14.8572 15.7068 14.8155 15.7694 14.8155H17.5016C17.5642 14.8155 17.6059 14.8572 17.6059 14.9198Z" fill="#184F78"/>
<path d="M10.2811 14.8364C10.2811 14.586 10.2602 13.7094 10.3854 13.3547C10.4689 13.0834 11.1159 13.459 11.1576 13.3964C11.262 13.2921 10.9489 14.2729 11.0741 14.3147C11.2411 14.3564 11.5541 14.4816 11.3246 15.1703C11.1785 15.5668 10.8863 15.6921 10.7193 15.6294C10.4063 15.5042 10.2811 15.2538 10.2811 14.8364Z" fill="#FCD095"/>
<path d="M10.2812 14.1058L10.3021 13.8554L11.1369 13.7928V14.1058H10.2812Z" fill="#E6E7E8"/>
<path d="M11.2615 13.9179L11.5745 8.70054L12.2006 6.42576C10.3849 6.42576 10.3849 8.47097 10.3849 8.47097L10.0928 13.9179H11.2615Z" fill="#0D3A56"/>
<path d="M17.2087 14.8364C17.2087 14.586 17.2295 13.7094 17.1043 13.3547C17.0208 13.0834 16.3739 13.459 16.3321 13.3964C16.2278 13.2921 16.5408 14.2729 16.4156 14.3147C16.2487 14.3564 15.9356 14.4816 16.1652 15.1703C16.3113 15.5668 16.6034 15.6921 16.7704 15.6294C17.0834 15.5042 17.2087 15.2538 17.2087 14.8364Z" fill="#FCD095"/>
<path d="M17.2077 14.1058L17.1868 13.8554L16.3521 13.7928V14.1058H17.2077Z" fill="#E6E7E8"/>
<path d="M16.2277 13.9179L15.9147 8.70054L15.2886 6.42576C17.1042 6.42576 17.1042 8.47097 17.1042 8.47097L17.3964 13.9179H16.2277Z" fill="#0D3A56"/>
<path d="M14.8093 6.07101H12.6806C11.6371 6.36319 10.7397 6.98928 10.7397 7.69884C10.7397 7.8658 11.4702 8.53362 11.4702 8.53362V13.7093C11.4702 13.7093 13.1606 13.8971 13.5989 13.8971C14.0371 13.8971 15.9571 13.7093 15.9571 13.7093V8.53362C15.9571 8.53362 15.9571 8.45014 16.0406 8.36667C16.0823 8.32493 16.1867 8.28319 16.2284 8.30406C16.5206 8.36667 16.7502 7.82406 16.7502 7.69884C16.7502 6.96841 15.8528 6.36319 14.8093 6.07101Z" fill="#0D3A56"/>
<path d="M14.6835 6.05025L15.247 7.30243L14.3496 7.99113L14.6209 8.2833L13.7026 10.8503L13.7235 8.53373L14.6835 6.05025Z" fill="#184F78"/>
<path d="M12.7425 6.02916L12.1582 7.26047L13.0765 7.97003L12.7843 8.24134L13.7025 10.8292V8.51264L12.7425 6.02916Z" fill="#184F78"/>
<path d="M14.6845 6.05025L13.7245 8.53373L12.7437 6.05025H14.6845Z" fill="#C4C4C4"/>
<path d="M15.4983 3.92137H15.4775C15.5192 3.52485 15.4983 2.50224 14.8722 1.91789L13.7453 1.52137L12.6183 1.91789C12.0131 2.48137 11.9714 3.50398 12.0131 3.92137H11.9923C11.8879 3.94224 11.8462 4.1092 11.867 4.29702C11.9088 4.48485 12.0131 4.63094 12.0966 4.63094C12.1175 4.63094 12.1592 4.61007 12.1592 4.5892C12.3262 5.00659 12.6183 5.42398 12.827 5.65355C12.827 5.65355 13.2862 6.09181 13.7244 6.07094C14.1835 6.09181 14.6218 5.65355 14.6218 5.65355C14.8305 5.42398 15.1227 4.98572 15.2896 4.5892C15.3105 4.61007 15.3314 4.63094 15.3522 4.63094C15.4566 4.65181 15.5609 4.50572 15.5818 4.29702C15.6444 4.1092 15.6027 3.94224 15.4983 3.92137Z" fill="#FCD095"/>
<path d="M12.3257 3.19105C12.3257 3.19105 12.3048 3.21192 12.3257 3.19105C12.3048 3.21192 12.3048 3.19105 12.3257 3.19105Z" fill="#754C29"/>
<path d="M13.9331 6.3007H13.5575L13.4531 6.53027L13.6618 6.80157H13.8288L14.0375 6.53027L13.9331 6.3007Z" fill="#EF4136"/>
<path d="M12.3257 3.19105C12.3257 3.19105 12.3048 3.21192 12.3257 3.19105C12.3048 3.21192 12.3048 3.19105 12.3257 3.19105Z" fill="#754C29"/>
<path d="M13.9751 6.15455H13.4742L13.3281 6.4676L13.5994 6.84325H13.8499L14.1003 6.4676L13.9751 6.15455Z" fill="#FF0600"/>
<path d="M13.7244 8.5336L13.9123 8.0536L13.8497 6.80143H13.5784L13.5366 8.0536L13.7244 8.5336Z" fill="#FF0600"/>
<path d="M13.745 1.52137C12.0337 1.52137 11.9711 3.33703 12.0128 3.92137C12.0128 3.92137 12.1172 3.52485 12.1589 3.4205C12.2006 3.33702 12.305 3.19094 12.305 3.19094C12.2841 3.29529 12.3259 3.37876 12.4093 3.44137C12.5346 3.52485 12.8476 3.71268 13.3276 3.46224C13.4111 3.4205 13.578 3.33703 13.745 3.23268C13.8702 3.17007 13.9954 3.10746 14.1206 3.04485H14.1415C14.1624 3.04485 14.1832 3.02398 14.2041 3.02398H14.225C14.2459 3.02398 14.2459 3.00311 14.2667 3.00311H14.2876C14.3085 3.00311 14.3085 3.00311 14.3293 2.98224H14.3502C14.3711 2.98224 14.3711 2.98224 14.3919 2.98224C14.5172 2.9405 14.6632 2.9405 14.8302 2.9405C14.8719 2.9405 14.8928 2.9405 14.9137 2.9405C14.9137 2.9405 15.3728 2.87789 15.498 3.94224C15.5189 3.35789 15.4563 1.52137 13.745 1.52137Z" fill="#184F78"/>
<path d="M13.035 6.86405L12.7637 6.05013L12.8054 5.75796L13.6611 6.13361L13.035 6.86405Z" fill="#E6E7E8"/>
<path d="M13.7866 6.13361L14.6423 5.75796L14.684 6.05013L14.4544 6.86405L13.7866 6.13361Z" fill="#E6E7E8"/>
<path d="M14.8189 11.9049L14.6846 12.0647L15.3713 12.6423L15.5057 12.4826L14.8189 11.9049Z" fill="#184F78"/>
<path d="M12.1594 12.6449L12.8272 12.0814L12.702 11.9145L12.0342 12.4988L12.1594 12.6449Z" fill="#184F78"/>
<path d="M12.0543 21.9318V22.0362C11.3448 22.0779 10.9482 22.9127 10.9482 22.9127H13.3274V22.1197V22.0153V21.9318H12.0543Z" fill="#3F2E00"/>
<path d="M15.2678 22.0362V21.9318H14.0156V22.0153V22.1197V22.9127H16.3948C16.3948 22.9127 15.9774 22.0779 15.2678 22.0362Z" fill="#3F2E00"/>
<path d="M12.43 23.0379H10.9482V22.9127H12.743L12.43 23.0379Z" fill="black"/>
<path d="M13.3271 22.9127H12.7637V23.0379H13.3271V22.9127Z" fill="black"/>
<path d="M14.9136 23.0379H16.3954V22.9127H14.6006L14.9136 23.0379Z" fill="black"/>
<path d="M14.5791 22.9127H14.0156V23.0379H14.5791V22.9127Z" fill="black"/>
<path d="M7.35835 7.57371H2.70445C2.64184 7.57371 2.6001 7.53197 2.6001 7.46936C2.6001 7.40675 2.64184 7.36501 2.70445 7.36501H7.254V5.5911C7.254 5.52849 7.29574 5.48675 7.35835 5.48675H10.3218C10.3844 5.48675 10.4262 5.52849 10.4262 5.5911C10.4262 5.65371 10.3844 5.69545 10.3218 5.69545H7.46269V7.46936C7.46269 7.53197 7.42096 7.57371 7.35835 7.57371Z" fill="#0F303F"/>
<path d="M20.9232 16.5059H19.8797C19.8171 16.5059 19.7754 16.4641 19.7754 16.4015C19.7754 16.3389 19.8171 16.2972 19.8797 16.2972H20.8189V13.7093C20.8189 13.6467 20.8606 13.605 20.9232 13.605H25.4728C25.5354 13.605 25.5771 13.6467 25.5771 13.7093C25.5771 13.772 25.5354 13.8137 25.4728 13.8137H21.0276V16.4015C21.0276 16.4641 20.9858 16.5059 20.9232 16.5059Z" fill="#0F303F"/>
<path d="M19.3581 10.1822H18.1268C18.0642 10.1822 18.0225 10.1405 18.0225 10.0779C18.0225 10.0153 18.0642 9.97352 18.1268 9.97352H19.2538V7.42743C19.2538 7.36482 19.2955 7.32308 19.3581 7.32308H23.9494C24.012 7.32308 24.0537 7.36482 24.0537 7.42743C24.0537 7.49003 24.012 7.53177 23.9494 7.53177H19.4625V10.0779C19.4625 10.1405 19.4207 10.1822 19.3581 10.1822Z" fill="#0F303F"/>
<path d="M9.80026 17.6327H4.10288C4.04027 17.6327 3.99854 17.591 3.99854 17.5284C3.99854 17.4657 4.04027 17.424 4.10288 17.424H9.71678V15.817C9.71678 15.7544 9.75852 15.7127 9.82113 15.7127C9.88374 15.7127 9.92548 15.7544 9.92548 15.817V17.5284C9.90461 17.591 9.86287 17.6327 9.80026 17.6327Z" fill="#0F303F"/>
<path d="M7.02442 6.59266H3.08008V7.13527H7.02442V6.59266Z" fill="#54A7FF"/>
<path d="M7.02442 5.67458H3.08008V6.21719H7.02442V5.67458Z" fill="#E9C300"/>
<path d="M7.02442 4.75617H3.08008V5.29877H7.02442V4.75617Z" fill="#D43100"/>
<path d="M8.48535 16.485H4.54102V17.0276H8.48535V16.485Z" fill="#54A7FF"/>
<path d="M8.48535 15.5666H4.54102V16.1092H8.48535V15.5666Z" fill="#D43100"/>
<path d="M8.48535 14.6485H4.54102V15.1911H8.48535V14.6485Z" fill="#E9C300"/>
<path d="M23.8242 6.405H19.8799V6.94761H23.8242V6.405Z" fill="#D43100"/>
<path d="M23.8242 5.48675H19.8799V6.02936H23.8242V5.48675Z" fill="#54A7FF"/>
<path d="M23.8242 4.56833H19.8799V5.11094H23.8242V4.56833Z" fill="#E9C300"/>
<path d="M25.3057 12.6658H21.3613V13.2084H25.3057V12.6658Z" fill="#E9C300"/>
<path d="M25.3057 11.7476H21.3613V12.2902H25.3057V11.7476Z" fill="#54A7FF"/>
<path d="M25.3057 10.8292H21.3613V11.3718H25.3057V10.8292Z" fill="#D43100"/>
</g>
<defs>
<filter id="filter0_d" x="0" y="0.321289" width="32" height="32" filterUnits="userSpaceOnUse" color-interpolation-filters="sRGB">
<feFlood flood-opacity="0" result="BackgroundImageFix"/>
<feColorMatrix in="SourceAlpha" type="matrix" values="0 0 0 0 0 0 0 0 0 0 0 0 0 0 0 0 0 0 127 0"/>
<feOffset dx="2" dy="4"/>
<feGaussianBlur stdDeviation="2"/>
<feColorMatrix type="matrix" values="0 0 0 0 0 0 0 0 0 0 0 0 0 0 0 0 0 0 0.25 0"/>
<feBlend mode="normal" in2="BackgroundImageFix" result="effect1_dropShadow"/>
<feBlend mode="normal" in="SourceGraphic" in2="effect1_dropShadow" result="shape"/>
</filter>
</defs>
</svg>
