<svg width="128" height="128" viewBox="0 0 128 128" fill="none" xmlns="http://www.w3.org/2000/svg">
<path d="M119 64C119 94.375 94.375 119 64 119C33.625 119 9 94.375 9 64C9 33.625 33.625 9 64 9C94.375 9 119 33.625 119 64Z" fill="white"/>
<path d="M64 122C32 122 6 96 6 64C6 32 32 6 64 6C96 6 122 32 122 64C122 65.6992 120.699 67 119 67C117.301 67 116 65.6992 116 64C116 35.3008 92.6992 12 64 12C35.3008 12 12 35.3008 12 64C12 92.6992 35.3008 116 64 116C65.6992 116 67 117.301 67 119C67 120.699 65.6992 122 64 122Z" fill="#444B54"/>
<path d="M75.1016 73.8984C75.1016 70.1992 73.3008 66.8008 70.3008 64.6992L61 58.3008C59.6992 57.3008 58.8984 55.8008 58.8984 54.1016C58.8984 51.3008 61.1992 49 64 49C66.1016 49 67.8984 50.1992 68.6992 52.1016C69.3008 53.6016 71.1016 54.3008 72.6016 53.6992C74.1016 53.1016 74.8008 51.3008 74.1992 49.8008C72.8984 46.6016 70.1992 44.3008 67 43.3984V43C67 41.3008 65.6992 40 64 40C62.3008 40 61 41.3008 61 43V43.3984C56.3008 44.6992 52.8984 49 52.8984 54.1016C52.8984 57.6992 54.6016 61 57.6016 63.1016L66.8984 69.6016C68.3008 70.6016 69.1016 72.1016 69.1016 73.8008C69.1016 76.6016 66.8008 78.8984 64 78.8984C62 78.8984 60.1016 77.6992 59.3008 75.8008C58.6016 74.3008 56.8984 73.6016 55.3984 74.1992C53.8984 74.8984 53.1992 76.6016 53.8008 78.1016C55.1992 81.1992 57.8008 83.5 61 84.3984V85C61 86.6992 62.3008 88 64 88C65.6992 88 67 86.6992 67 85V84.6016C71.6992 83.3008 75.1016 79 75.1016 73.8984Z" fill="#444B54"/>
<path d="M126.5 114.398L105.301 79.1016C104.398 77.6016 102.801 76.6992 101 76.6992C99.1992 76.6992 97.6015 77.6016 96.6992 79.1016L75.5 114.398C74.6015 116 74.5 117.801 75.3984 119.398C76.3007 121 77.8984 121.898 79.8007 121.898H122.102C123.898 121.898 125.602 121 126.5 119.398C127.398 117.898 127.398 116 126.5 114.398Z" fill="#FCCA3D"/>
<path d="M101 105C99.3008 105 98 103.699 98 102V92C98 90.3008 99.3008 89 101 89C102.699 89 104 90.3008 104 92V102C104 103.699 102.699 105 101 105Z" fill="white"/>
<path d="M101 115C100.199 115 99.3984 114.699 98.8984 114.102C98.8008 114 98.6016 113.801 98.5 113.602C98.3984 113.398 98.3008 113.301 98.1992 113.102C98.1016 112.898 98.1016 112.699 98 112.5C98 112.301 97.8984 112.102 97.8984 111.898C97.8984 111.102 98.1992 110.301 98.8008 109.801C99.8984 108.699 101.898 108.699 103 109.801C103.602 110.398 103.898 111.102 103.898 111.898C103.898 112.102 103.898 112.301 103.801 112.5C103.801 112.699 103.699 112.898 103.602 113.102C103.5 113.301 103.398 113.5 103.301 113.602C103.199 113.801 103.102 113.898 102.898 114.102C102.602 114.699 101.801 115 101 115Z" fill="white"/>
</svg>
