<svg width="24" height="24" viewBox="0 0 24 24" fill="none" xmlns="http://www.w3.org/2000/svg">
<path d="M0 4C0 1.79086 1.79086 0 4 0H20C22.2091 0 24 1.79086 24 4V20C24 22.2091 22.2091 24 20 24H4C1.79086 24 0 22.2091 0 20V4Z" fill="white"/>
<path d="M14.5 8.25V8.3562C14.4437 11.7188 11.7188 14.4437 8.3562 14.5H8.25C4.80624 14.5 2 11.6938 2 8.25C2 4.80624 4.80624 2 8.25 2C11.6938 2 14.5 4.80624 14.5 8.25Z" fill="#E76E54"/>
<path d="M14.5002 8.25C14.5002 8.03882 14.4889 7.83069 14.4683 7.625L14.5002 8.25Z" fill="#8B8B8E"/>
<path d="M14.5 8.3562C11.7993 8.80817 9.58881 10.7112 8.6893 13.2325C8.54434 13.2425 8.39816 13.25 8.25 13.25C5.01437 13.25 2.34622 10.7787 2.03189 7.625C2.01129 7.83069 2 8.03882 2 8.25C2 11.6962 4.8038 14.5 8.25 14.5C8.28632 14.5 8.32126 14.4956 8.35757 14.495C8.35757 14.4969 8.35681 14.4982 8.3562 14.5C8.43127 14.4988 8.50436 14.4893 8.57944 14.485C8.65817 14.4806 8.73874 14.4812 8.81686 14.4744V14.4693C11.9631 14.1844 14.4463 11.5631 14.5 8.3562Z" fill="#DD523C"/>
<path d="M22 15.75C22 19.2018 19.2018 22 15.75 22C12.2982 22 9.5 19.2018 9.5 15.75C9.5 12.2982 12.2982 9.5 15.75 9.5C19.2018 9.5 22 12.2982 22 15.75Z" fill="#FFCB5A"/>
<path d="M18.25 15.125V14.5C18.25 13.1212 17.1288 12 15.75 12C14.5888 12 13.6182 12.8 13.3388 13.875H12V15.125H13.25V16.375H12V17.625H13.3388C13.6182 18.7 14.5888 19.5 15.75 19.5C17.1288 19.5 18.25 18.3788 18.25 17V16.375H17V17C17 17.6894 16.4394 18.25 15.75 18.25C15.2893 18.25 14.8906 17.9969 14.6738 17.625H15.75V16.375H14.5V15.125H15.75V13.875H14.6738C14.8906 13.5031 15.2893 13.25 15.75 13.25C16.4394 13.25 17 13.8106 17 14.5V15.125H18.25Z" fill="white"/>
<path d="M20.3081 5.93311L19.5 6.74121V3.25H15.125V4.5H18.25V6.74121L17.4419 5.93311L16.5581 6.81689L18.875 9.13379L21.1919 6.81689L20.3081 5.93311Z" fill="#77959E"/>
<path d="M5.75 19.5V17.2588L6.55811 18.0669L7.44189 17.1831L5.125 14.8662L2.80811 17.1831L3.69189 18.0669L4.5 17.2588V20.75H8.875V19.5H5.75Z" fill="#77959E"/>
<path d="M8.25 6.375H10.125V5.125H8.875V3.875H7.625V5.24005C6.89944 5.49869 6.375 6.18625 6.375 7C6.375 8.03378 7.21622 8.875 8.25 8.875C8.59439 8.875 8.875 9.15561 8.875 9.5C8.875 9.84439 8.59439 10.125 8.25 10.125H6.375V11.375H7.625V12.625H8.875V11.2599C9.60056 11.0013 10.125 10.3138 10.125 9.5C10.125 8.46622 9.28378 7.625 8.25 7.625C7.90561 7.625 7.625 7.34439 7.625 7C7.625 6.65561 7.90561 6.375 8.25 6.375Z" fill="white"/>
<path d="M4 1H20V-1H4V1ZM23 4V20H25V4H23ZM20 23H4V25H20V23ZM1 20V4H-1V20H1ZM4 23C2.34315 23 1 21.6569 1 20H-1C-1 22.7614 1.23858 25 4 25V23ZM23 20C23 21.6569 21.6569 23 20 23V25C22.7614 25 25 22.7614 25 20H23ZM20 1C21.6569 1 23 2.34315 23 4H25C25 1.23858 22.7614 -1 20 -1V1ZM4 -1C1.23858 -1 -1 1.23858 -1 4H1C1 2.34315 2.34315 1 4 1V-1Z" fill="black"/>
</svg>
