<svg width="29" height="31" viewBox="0 0 29 31" fill="none" xmlns="http://www.w3.org/2000/svg">
<g filter="url(#filter0_d)">
<path fill-rule="evenodd" clip-rule="evenodd" d="M23.8593 12.0381C23.7156 12.1802 23.5209 12.2589 23.3188 12.2565V12.239C22.8962 12.239 22.5536 11.8964 22.5536 11.4738V8.93201C22.5536 5.88012 20.8826 4.20905 17.8395 4.20905H10.3373C7.29419 4.20905 5.61433 5.88891 5.61433 8.93201V16.4342C5.61433 19.4685 7.29419 21.1484 10.3373 21.1484H17.8395C20.8826 21.1484 22.5536 19.4685 22.5536 16.4342C22.5536 16.0116 22.8962 15.669 23.3188 15.669C23.7414 15.669 24.084 16.0116 24.084 16.4342C24.084 20.2865 21.6917 22.6787 17.8395 22.6787H10.3373C6.47625 22.6787 4.08398 20.2865 4.08398 16.4342V8.93201C4.08398 5.07097 6.47625 2.67871 10.3373 2.67871H17.8395C21.6741 2.67871 24.084 5.07097 24.084 8.93201V11.5002C24.084 11.7023 24.0031 11.896 23.8593 12.0381ZM14.119 8.52781C14.1994 8.52778 14.2786 8.54059 14.3537 8.56508C14.6751 8.65573 14.9107 8.95116 14.9107 9.30161V11.694H17.5139C17.6021 11.693 17.6888 11.7074 17.7706 11.7358C17.8893 11.7721 17.9984 11.8374 18.0872 11.9273C18.2293 12.0711 18.308 12.2657 18.3056 12.4678C18.3058 12.8837 17.9738 13.2235 17.5581 13.233H17.5053H10.7419C10.6783 13.2316 10.6167 13.2225 10.5579 13.2067C10.2126 13.1311 9.95416 12.8255 9.95009 12.4592C9.94774 12.2571 10.0264 12.0624 10.1685 11.9187C10.3106 11.7749 10.5043 11.694 10.7065 11.694H13.345V9.29298C13.3545 8.87095 13.6968 8.53244 14.119 8.52781ZM13.3626 16.0298V15.1502V15.0623C13.3695 14.8593 13.4567 14.6674 13.6052 14.5288C13.7537 14.3903 13.9512 14.3164 14.1541 14.3235C14.3579 14.328 14.5512 14.4146 14.6903 14.5636C14.8294 14.7126 14.9025 14.9115 14.8929 15.1151V16.0825C14.886 16.2855 14.7988 16.4774 14.6503 16.616C14.5018 16.7546 14.3043 16.8284 14.1014 16.8213C13.6808 16.8023 13.3526 16.4506 13.3626 16.0298Z" fill="#FF5E59"/>
</g>
<defs>
<filter id="filter0_d" x="-1.91602" y="0.678711" width="32" height="32" filterUnits="userSpaceOnUse" color-interpolation-filters="sRGB">
<feFlood flood-opacity="0" result="BackgroundImageFix"/>
<feColorMatrix in="SourceAlpha" type="matrix" values="0 0 0 0 0 0 0 0 0 0 0 0 0 0 0 0 0 0 127 0"/>
<feOffset dy="4"/>
<feGaussianBlur stdDeviation="2"/>
<feColorMatrix type="matrix" values="0 0 0 0 0 0 0 0 0 0 0 0 0 0 0 0 0 0 0.25 0"/>
<feBlend mode="normal" in2="BackgroundImageFix" result="effect1_dropShadow"/>
<feBlend mode="normal" in="SourceGraphic" in2="effect1_dropShadow" result="shape"/>
</filter>
</defs>
</svg>
