<svg width="53" height="52" viewBox="0 0 53 52" fill="none" xmlns="http://www.w3.org/2000/svg">
<path d="M26.5 0C12.1641 0 0.5 11.6641 0.5 26C0.5 40.3359 12.1641 52 26.5 52C40.8359 52 52.5 40.3359 52.5 26C52.5 11.6641 40.8359 0 26.5 0ZM26.5 4C38.6719 4 48.5 13.8281 48.5 26C48.5 38.1719 38.6719 48 26.5 48C14.3281 48 4.5 38.1719 4.5 26C4.5 13.8281 14.3281 4 26.5 4ZM26.5 10C21 10 16.5 14.5 16.5 20C16.5 23.0312 17.9141 25.7266 20.0625 27.5625C15.5625 29.8984 12.5 34.6016 12.5 40H16.5C16.5 34.4531 20.9531 30 26.5 30C32.0469 30 36.5 34.4531 36.5 40H40.5C40.5 34.6016 37.4375 29.8984 32.9375 27.5625C35.0859 25.7266 36.5 23.0312 36.5 20C36.5 14.5 32 10 26.5 10ZM26.5 14C29.8359 14 32.5 16.6641 32.5 20C32.5 23.3359 29.8359 26 26.5 26C23.1641 26 20.5 23.3359 20.5 20C20.5 16.6641 23.1641 14 26.5 14Z" fill="white"/>
</svg>
